<svg width="45" height="45" viewBox="0 0 45 45" fill="none" xmlns="http://www.w3.org/2000/svg">
<g clip-path="url(#clip0_1405_19112)">
<path d="M25.9365 27.2306C24.8308 27.9677 23.5464 28.3574 22.2222 28.3574C20.8981 28.3574 19.6137 27.9677 18.508 27.2306L0.29592 15.0888C0.194878 15.0214 0.096441 14.9512 0 14.879V34.7746C0 37.0556 1.85113 38.866 4.09141 38.866H40.3529C42.634 38.866 44.4444 37.0148 44.4444 34.7746V14.8789C44.3477 14.9513 44.2491 15.0217 44.1478 15.0892L25.9365 27.2306Z" fill="#3468AC"/>
<path d="M1.74045 12.9217L19.9525 25.0635C20.6419 25.5231 21.432 25.7529 22.2221 25.7529C23.0123 25.7529 23.8025 25.5231 24.4919 25.0635L42.704 12.9217C43.7938 12.1955 44.4444 10.9803 44.4444 9.66863C44.4444 7.41334 42.6096 5.57861 40.3544 5.57861H4.09002C1.83481 5.5787 0 7.41342 0 9.6708C0 10.9803 0.650694 12.1955 1.74045 12.9217Z" fill="#3468AC"/>
</g>
<defs>
<clipPath id="clip0_1405_19112">
<rect width="44.4444" height="44.4444" fill="white"/>
</clipPath>
</defs>
</svg>
