<svg width="63" height="64" viewBox="0 0 63 64" fill="none" xmlns="http://www.w3.org/2000/svg">
<rect y="0.905273" width="62.5" height="62.5" rx="13.8889" fill="#E7C595"/>
<path fill-rule="evenodd" clip-rule="evenodd" d="M31.3214 18.2666H31.1781C28.8445 18.2666 26.9961 18.2666 25.5494 18.4645C24.0606 18.6681 22.8556 19.0972 21.9053 20.0641C20.955 21.031 20.5333 22.257 20.3331 23.7717C20.1386 25.2436 20.1387 27.1242 20.1387 29.4986V34.8124C20.1387 37.1867 20.1386 39.0674 20.3331 40.5392C20.5333 42.054 20.955 43.28 21.9053 44.2469C22.8556 45.2138 24.0606 45.6429 25.5494 45.8465C26.996 46.0444 28.8445 46.0444 31.1781 46.0444H31.3214C33.6551 46.0444 35.5035 46.0444 36.9501 45.8465C38.4389 45.6429 39.6439 45.2138 40.5942 44.2469C41.5445 43.28 41.9663 42.054 42.1664 40.5392C42.3609 39.0674 42.3609 37.1868 42.3609 34.8124V29.4986C42.3609 27.1243 42.3609 25.2436 42.1664 23.7717C41.9663 22.257 41.5445 21.031 40.5942 20.0641C39.6439 19.0972 38.4389 18.6681 36.9501 18.4645C35.5035 18.2666 33.6551 18.2666 31.3214 18.2666ZM26.4879 41.1994C26.4879 40.6643 26.9143 40.2304 27.4403 40.2304H35.0593C35.5853 40.2304 36.0117 40.6643 36.0117 41.1994C36.0117 41.7346 35.5853 42.1684 35.0593 42.1684H27.4403C26.9143 42.1684 26.4879 41.7346 26.4879 41.1994Z" fill="#161717"/>
</svg>
