<svg width="63" height="64" viewBox="0 0 63 64" fill="none" xmlns="http://www.w3.org/2000/svg">
<rect y="0.905273" width="62.5" height="62.5" rx="13.8889" fill="#E7C595"/>
<path fill-rule="evenodd" clip-rule="evenodd" d="M21.7659 19.8938C20.1387 21.521 20.1387 24.1399 20.1387 29.3777V34.9333C20.1387 40.1711 20.1387 42.79 21.7659 44.4172C23.393 46.0444 26.012 46.0444 31.2498 46.0444C36.4876 46.0444 39.1065 46.0444 40.7337 44.4172C42.3609 42.79 42.3609 40.1711 42.3609 34.9333V29.3777C42.3609 24.1399 42.3609 21.521 40.7337 19.8938C39.1065 18.2666 36.4876 18.2666 31.2498 18.2666C26.012 18.2666 23.393 18.2666 21.7659 19.8938ZM27.0831 21.3916C26.5078 21.3916 26.0414 21.858 26.0414 22.4333C26.0414 23.0086 26.5078 23.4749 27.0831 23.4749H35.4164C35.9917 23.4749 36.4581 23.0086 36.4581 22.4333C36.4581 21.858 35.9917 21.3916 35.4164 21.3916H27.0831ZM31.2498 41.8777C32.7839 41.8777 34.0276 40.6341 34.0276 39.0999C34.0276 37.5658 32.7839 36.3222 31.2498 36.3222C29.7157 36.3222 28.472 37.5658 28.472 39.0999C28.472 40.6341 29.7157 41.8777 31.2498 41.8777Z" fill="#161717"/>
</svg>
