<svg width="63" height="63" viewBox="0 0 63 63" fill="none" xmlns="http://www.w3.org/2000/svg">
<rect width="62.5" height="62.5" rx="13.8889" fill="#E7C595"/>
<path fill-rule="evenodd" clip-rule="evenodd" d="M43.75 29.9968V36.932C43.75 41.2328 43.75 43.3832 42.7304 44.3229C42.2441 44.771 41.6304 45.0525 40.9765 45.1274C39.6055 45.2842 38.0045 43.8682 34.8026 41.0361C33.3872 39.7842 32.6795 39.1583 31.8607 38.9934C31.4575 38.9122 31.0425 38.9122 30.6393 38.9934C29.8205 39.1583 29.1128 39.7842 27.6974 41.0361C24.4955 43.8682 22.8945 45.2842 21.5235 45.1274C20.8696 45.0525 20.2559 44.771 19.7696 44.3229C18.75 43.3832 18.75 41.2328 18.75 36.932V29.9968C18.75 24.0404 18.75 21.0622 20.5806 19.2117C22.4112 17.3613 25.3574 17.3613 31.25 17.3613C37.1426 17.3613 40.0888 17.3613 41.9194 19.2117C43.75 21.0622 43.75 24.0404 43.75 29.9968ZM26.0417 22.9169C26.0417 22.3416 26.508 21.8752 27.0833 21.8752H35.4167C35.992 21.8752 36.4583 22.3416 36.4583 22.9169C36.4583 23.4922 35.992 23.9586 35.4167 23.9586H27.0833C26.508 23.9586 26.0417 23.4922 26.0417 22.9169Z" fill="#171717"/>
</svg>
