<svg width="63" height="64" viewBox="0 0 63 64" fill="none" xmlns="http://www.w3.org/2000/svg">
<rect y="0.819336" width="62.5" height="62.5" rx="13.8889" fill="#E7C595"/>
<path d="M37.5384 18.1807H24.9611C23.2905 18.1807 22.4553 18.1807 21.784 18.5955C21.1127 19.0104 20.7392 19.7575 19.9921 21.2517L18.0426 26.1797C17.5922 27.3182 17.1981 28.6602 17.9563 29.6216C18.4649 30.2666 19.2534 30.6807 20.1386 30.6807C21.6727 30.6807 22.9164 29.437 22.9164 27.9029C22.9164 29.437 24.16 30.6807 25.6941 30.6807C27.2283 30.6807 28.4719 29.437 28.4719 27.9029C28.4719 29.437 29.7156 30.6807 31.2497 30.6807C32.7838 30.6807 34.0275 29.437 34.0275 27.9029C34.0275 29.437 35.2711 30.6807 36.8053 30.6807C38.3394 30.6807 39.583 29.437 39.583 27.9029C39.583 29.437 40.8267 30.6807 42.3608 30.6807C43.246 30.6807 44.0345 30.2666 44.5432 29.6216C45.3014 28.6602 44.9073 27.3182 44.4569 26.1797L42.5074 21.2517C41.7603 19.7575 41.3868 19.0104 40.7155 18.5955C40.0443 18.1807 39.209 18.1807 37.5384 18.1807Z" fill="#161717"/>
<path fill-rule="evenodd" clip-rule="evenodd" d="M42.362 44.9167H45.1398C45.7151 44.9167 46.1814 45.383 46.1814 45.9583C46.1814 46.5336 45.7151 47 45.1398 47H17.362C16.7867 47 16.3203 46.5336 16.3203 45.9583C16.3203 45.383 16.7867 44.9167 17.362 44.9167H20.1398L20.1398 32.7639C21.1726 32.7639 22.1302 32.4418 22.9175 31.8926C23.7049 32.4418 24.6625 32.7639 25.6953 32.7639C26.7281 32.7639 27.6857 32.4418 28.4731 31.8926C29.2605 32.4418 30.2181 32.7639 31.2509 32.7639C32.2837 32.7639 33.2413 32.4418 34.0286 31.8926C34.816 32.4418 35.7736 32.7639 36.8064 32.7639C37.8392 32.7639 38.7968 32.4418 39.5842 31.8926C40.3716 32.4418 41.3292 32.7639 42.362 32.7639L42.362 44.9167ZM27.7786 44.9167H34.7231V41.0972C34.7231 39.7991 34.7231 39.1501 34.444 38.6667C34.2611 38.3499 33.9981 38.087 33.6814 37.9041C33.198 37.625 32.5489 37.625 31.2509 37.625C29.9528 37.625 29.3038 37.625 28.8203 37.9041C28.5036 38.087 28.2406 38.3499 28.0578 38.6667C27.7786 39.1501 27.7786 39.7991 27.7786 41.0972V44.9167Z" fill="#161717"/>
</svg>
