<svg width="63" height="64" viewBox="0 0 63 64" fill="none" xmlns="http://www.w3.org/2000/svg">
<rect y="0.819336" width="62.5" height="62.5" rx="13.8889" fill="#E7C595"/>
<path fill-rule="evenodd" clip-rule="evenodd" d="M44.9144 30.8561L44.596 34.2384C44.0715 39.8114 43.8093 42.598 42.1668 44.2782C40.5242 45.9584 38.0625 45.9584 33.139 45.9584H29.3614C24.4379 45.9584 21.9762 45.9584 20.3337 44.2782C18.6912 42.598 18.4289 39.8114 17.9044 34.2384L17.5861 30.8561C17.3361 28.1997 17.211 26.8715 17.6655 26.3224C17.9113 26.0254 18.2456 25.8434 18.603 25.8121C19.2637 25.754 20.0934 26.6986 21.7528 28.5877C22.611 29.5647 23.0401 30.0532 23.5188 30.1288C23.784 30.1707 24.0543 30.1276 24.2992 30.0044C24.7412 29.7819 25.0359 29.1781 25.6253 27.9703L28.7321 21.6041C29.8458 19.3218 30.4027 18.1807 31.2502 18.1807C32.0977 18.1807 32.6546 19.3218 33.7684 21.6041L36.8751 27.9703C37.4645 29.178 37.7592 29.7819 38.2012 30.0044C38.4462 30.1276 38.7164 30.1707 38.9816 30.1288C39.4603 30.0532 39.8894 29.5647 40.7476 28.5877C42.407 26.6986 43.2368 25.754 43.8975 25.8121C44.2549 25.8434 44.5891 26.0254 44.835 26.3224C45.2894 26.8715 45.1644 28.1997 44.9144 30.8561ZM32.5729 33.0404L32.4364 32.7955C31.9086 31.8487 31.6447 31.3753 31.2502 31.3753C30.8557 31.3753 30.5918 31.8487 30.064 32.7955L29.9275 33.0404C29.7775 33.3095 29.7025 33.444 29.5856 33.5327C29.4687 33.6215 29.3231 33.6545 29.0318 33.7203L28.7667 33.7803C27.7418 34.0122 27.2294 34.1282 27.1075 34.5202C26.9856 34.9123 27.3349 35.3208 28.0336 36.1378L28.2143 36.3492C28.4129 36.5813 28.5122 36.6974 28.5568 36.841C28.6015 36.9847 28.5865 37.1395 28.5565 37.4493L28.5291 37.7313C28.4235 38.8214 28.3707 39.3665 28.6899 39.6088C29.009 39.851 29.4888 39.6301 30.4484 39.1883L30.6967 39.074C30.9694 38.9485 31.1057 38.8857 31.2502 38.8857C31.3947 38.8857 31.5311 38.9485 31.8038 39.074L32.052 39.1883C33.0116 39.6301 33.4914 39.851 33.8106 39.6088C34.1297 39.3665 34.0769 38.8214 33.9713 37.7313L33.944 37.4493C33.914 37.1395 33.8989 36.9847 33.9436 36.841C33.9883 36.6974 34.0875 36.5813 34.2861 36.3492L34.4668 36.1378C35.1655 35.3208 35.5149 34.9123 35.393 34.5202C35.271 34.1282 34.7586 34.0122 33.7337 33.7803L33.4686 33.7203C33.1774 33.6545 33.0317 33.6215 32.9148 33.5327C32.7979 33.444 32.7229 33.3095 32.5729 33.0404Z" fill="#161717"/>
</svg>
