<svg width="63" height="64" viewBox="0 0 63 64" fill="none" xmlns="http://www.w3.org/2000/svg">
<rect x="0.00195312" y="0.819336" width="62.5" height="62.5" rx="13.8889" fill="#E7C595"/>
<path d="M32.6406 36.7918C32.6406 33.911 32.6406 32.4706 33.5559 31.5756C34.4712 30.6807 35.9443 30.6807 38.8906 30.6807C41.8369 30.6807 43.31 30.6807 44.2253 31.5756C45.1406 32.4706 45.1406 33.911 45.1406 36.7918V39.8473C45.1406 42.7281 45.1406 44.1685 44.2253 45.0635C43.31 45.9584 41.8369 45.9584 38.8906 45.9584C35.9443 45.9584 34.4712 45.9584 33.5559 45.0635C32.6406 44.1685 32.6406 42.7281 32.6406 39.8473V36.7918Z" fill="#161717"/>
<path d="M17.3633 27.3473C17.3633 30.2281 17.3633 31.6685 18.2786 32.5635C19.1939 33.4584 20.667 33.4584 23.6133 33.4584C26.5596 33.4584 28.0327 33.4584 28.948 32.5635C29.8633 31.6685 29.8633 30.2281 29.8633 27.3473V24.2918C29.8633 21.411 29.8633 19.9706 28.948 19.0756C28.0327 18.1807 26.5596 18.1807 23.6133 18.1807C20.667 18.1807 19.1939 18.1807 18.2786 19.0756C17.3633 19.9706 17.3633 21.411 17.3633 24.2918V27.3473Z" fill="#161717"/>
<path d="M32.6406 23.0418C32.6406 21.5318 32.6406 20.7768 32.8785 20.1812C33.1957 19.3872 33.804 18.7563 34.5697 18.4274C35.144 18.1807 35.8721 18.1807 37.3281 18.1807H40.4531C41.9092 18.1807 42.6372 18.1807 43.2115 18.4274C43.9772 18.7563 44.5856 19.3872 44.9027 20.1812C45.1406 20.7768 45.1406 21.5318 45.1406 23.0418C45.1406 24.5518 45.1406 25.3068 44.9027 25.9023C44.5856 26.6964 43.9772 27.3273 43.2115 27.6562C42.6372 27.9029 41.9092 27.9029 40.4531 27.9029H37.3281C35.8721 27.9029 35.144 27.9029 34.5697 27.6562C33.804 27.3273 33.1957 26.6964 32.8785 25.9023C32.6406 25.3068 32.6406 24.5518 32.6406 23.0418Z" fill="#161717"/>
<path d="M17.3633 41.0974C17.3633 42.6074 17.3633 43.3624 17.6012 43.958C17.9183 44.7521 18.5267 45.3829 19.2924 45.7119C19.8667 45.9586 20.5947 45.9585 22.0508 45.9585H25.1758C26.6318 45.9585 27.3599 45.9586 27.9342 45.7119C28.6999 45.3829 29.3082 44.7521 29.6254 43.958C29.8633 43.3624 29.8633 42.6074 29.8633 41.0974C29.8633 39.5874 29.8633 38.8324 29.6254 38.2369C29.3082 37.4428 28.6999 36.8119 27.9342 36.483C27.3599 36.2363 26.6318 36.2363 25.1758 36.2363H22.0508C20.5947 36.2363 19.8667 36.2363 19.2924 36.483C18.5267 36.8119 17.9183 37.4428 17.6012 38.2369C17.3633 38.8324 17.3633 39.5874 17.3633 41.0974Z" fill="#161717"/>
</svg>
