<svg width="63" height="63" viewBox="0 0 63 63" fill="none" xmlns="http://www.w3.org/2000/svg">
<rect y="0.431641" width="62.5" height="62.5" rx="13.8889" fill="#E7C595"/>
<path fill-rule="evenodd" clip-rule="evenodd" d="M31.25 45.5707C37.9669 45.5707 43.412 40.1766 43.412 33.5226C43.412 26.8686 37.9669 21.4745 31.25 21.4745C24.5331 21.4745 19.088 26.8686 19.088 33.5226C19.088 40.1766 24.5331 45.5707 31.25 45.5707ZM31.25 27.1639C31.8097 27.1639 32.2635 27.6134 32.2635 28.1679V33.1067L35.345 36.1594C35.7408 36.5515 35.7408 37.1872 35.345 37.5793C34.9492 37.9713 34.3075 37.9713 33.9117 37.5793L30.5333 34.2326C30.3433 34.0443 30.2365 33.7889 30.2365 33.5226V28.1679C30.2365 27.6134 30.6903 27.1639 31.25 27.1639Z" fill="#161717"/>
<path fill-rule="evenodd" clip-rule="evenodd" d="M26.0285 18.265C26.3251 18.7352 26.1808 19.3546 25.7062 19.6485L20.3008 22.9952C19.8261 23.2891 19.2008 23.1462 18.9042 22.6759C18.6075 22.2057 18.7518 21.5863 19.2265 21.2924L24.6319 17.9457C25.1065 17.6518 25.7318 17.7948 26.0285 18.265Z" fill="#161717"/>
<path fill-rule="evenodd" clip-rule="evenodd" d="M36.4716 18.265C36.7682 17.7948 37.3935 17.6518 37.8682 17.9457L43.2735 21.2924C43.7482 21.5863 43.8925 22.2057 43.5958 22.6759C43.2991 23.1462 42.6739 23.2891 42.1992 22.9952L36.7939 19.6485C36.3192 19.3546 36.1749 18.7352 36.4716 18.265Z" fill="#161717"/>
</svg>
