<svg width="63" height="63" viewBox="0 0 63 63" fill="none" xmlns="http://www.w3.org/2000/svg">
<rect y="0.431641" width="62.5" height="62.5" rx="13.8889" fill="#E7C595"/>
<path d="M25.696 22.6541H36.8071C39.1083 22.6541 40.9737 20.7886 40.9737 18.4874C40.9737 18.1039 40.6628 17.793 40.2793 17.793H22.2237C21.8402 17.793 21.5293 18.1039 21.5293 18.4874C21.5293 20.7886 23.3948 22.6541 25.696 22.6541Z" fill="#161717"/>
<path d="M21.5293 30.9874C21.5293 28.3685 21.5293 27.059 22.3429 26.2454C23.1565 25.4319 24.4659 25.4319 27.0849 25.4319H35.4182C38.0371 25.4319 39.3466 25.4319 40.1601 26.2454C40.9737 27.059 40.9737 28.3685 40.9737 30.9874V32.3763C40.9737 34.9952 40.9737 36.3047 40.1601 37.1183C39.3466 37.9319 38.0371 37.9319 35.4182 37.9319H27.0849C24.4659 37.9319 23.1565 37.9319 22.3429 37.1183C21.5293 36.3047 21.5293 34.9952 21.5293 32.3763V30.9874Z" fill="#161717"/>
<path d="M36.8071 40.7096H25.696C23.3948 40.7096 21.5293 42.5751 21.5293 44.8763C21.5293 45.2598 21.8402 45.5707 22.2237 45.5707L40.2793 45.5707C40.6628 45.5707 40.9737 45.2598 40.9737 44.8763C40.9737 42.5751 39.1083 40.7096 36.8071 40.7096Z" fill="#161717"/>
</svg>
