<svg width="63" height="63" viewBox="0 0 63 63" fill="none" xmlns="http://www.w3.org/2000/svg">
<rect x="0.00195312" width="62.5" height="62.5" rx="13.8889" fill="#E7C595"/>
<path d="M22.2244 36.8056L22.2244 25.6945C22.2244 23.3933 20.3589 21.5278 18.0577 21.5278C17.6742 21.5278 17.3633 21.8387 17.3633 22.2223V40.2778C17.3633 40.6614 17.6742 40.9723 18.0577 40.9723C20.3589 40.9723 22.2244 39.1068 22.2244 36.8056Z" fill="#161717"/>
<path d="M31.9466 21.5278C34.5655 21.5278 35.875 21.5278 36.6886 22.3414C37.5022 23.155 37.5022 24.4645 37.5022 27.0834V35.4167C37.5022 38.0356 37.5022 39.3451 36.6886 40.1587C35.875 40.9723 34.5655 40.9723 31.9466 40.9723H30.5577C27.9388 40.9723 26.6294 40.9723 25.8158 40.1587C25.0022 39.3451 25.0022 38.0356 25.0022 35.4167L25.0022 27.0834C25.0022 24.4645 25.0022 23.155 25.8158 22.3414C26.6294 21.5278 27.9388 21.5278 30.5577 21.5278H31.9466Z" fill="#161717"/>
<path d="M40.2799 25.6945V36.8056C40.2799 39.1068 42.1454 40.9723 44.4466 40.9723C44.8301 40.9723 45.1411 40.6614 45.1411 40.2778V22.2223C45.1411 21.8387 44.8301 21.5278 44.4466 21.5278C42.1454 21.5278 40.2799 23.3933 40.2799 25.6945Z" fill="#161717"/>
</svg>
