<svg width="63" height="63" viewBox="0 0 63 63" fill="none" xmlns="http://www.w3.org/2000/svg">
<rect width="62.5" height="62.5" rx="13.8889" fill="#E7C595"/>
<path d="M27.0844 22.9167C27.0844 25.2179 28.9499 27.0833 31.2511 27.0833C33.5523 27.0833 35.4178 25.2179 35.4178 22.9167C35.4178 20.6155 33.5523 18.75 31.2511 18.75C28.9499 18.75 27.0844 20.6155 27.0844 22.9167Z" fill="#161717"/>
<path d="M18.0566 39.5833C18.0566 41.8845 19.9221 43.75 22.2233 43.75C24.5245 43.75 26.39 41.8845 26.39 39.5833C26.39 37.2821 24.5245 35.4167 22.2233 35.4167C19.9221 35.4167 18.0566 37.2821 18.0566 39.5833Z" fill="#161717"/>
<path d="M40.2789 43.75C37.9777 43.75 36.1122 41.8845 36.1122 39.5833C36.1122 37.2821 37.9777 35.4167 40.2789 35.4167C42.58 35.4167 44.4455 37.2821 44.4455 39.5833C44.4455 41.8845 42.58 43.75 40.2789 43.75Z" fill="#161717"/>
<path d="M24.5909 25.0865C25.0222 24.7058 25.0633 24.0476 24.6826 23.6163C24.3019 23.1849 23.6436 23.1439 23.2123 23.5246C20.691 25.7499 19.0983 29.009 19.0983 32.6389C19.0983 33.2142 19.5647 33.6806 20.14 33.6806C20.7153 33.6806 21.1816 33.2142 21.1816 32.6389C21.1816 29.6316 22.4987 26.9331 24.5909 25.0865Z" fill="#161717"/>
<path d="M39.2899 23.5246C38.8585 23.1439 38.2003 23.1849 37.8196 23.6163C37.4389 24.0476 37.4799 24.7058 37.9113 25.0865C40.0035 26.9331 41.3205 29.6316 41.3205 32.6389C41.3205 33.2142 41.7869 33.6806 42.3622 33.6806C42.9375 33.6806 43.4039 33.2142 43.4039 32.6389C43.4039 29.009 41.8111 25.7499 39.2899 23.5246Z" fill="#161717"/>
<path d="M28.733 42.3912C28.1758 42.2478 27.6079 42.5832 27.4645 43.1403C27.3211 43.6975 27.6565 44.2654 28.2137 44.4088C29.1856 44.6589 30.2036 44.7917 31.2511 44.7917C32.2986 44.7917 33.3166 44.6589 34.2885 44.4088C34.8456 44.2654 35.181 43.6975 35.0377 43.1403C34.8943 42.5832 34.3264 42.2478 33.7692 42.3912C32.9655 42.5981 32.1219 42.7084 31.2511 42.7084C30.3802 42.7084 29.5367 42.5981 28.733 42.3912Z" fill="#161717"/>
</svg>
