<svg width="63" height="64" viewBox="0 0 63 64" fill="none" xmlns="http://www.w3.org/2000/svg">
<rect y="0.905273" width="62.5" height="62.5" rx="13.8889" fill="#E7C595"/>
<path fill-rule="evenodd" clip-rule="evenodd" d="M19.3953 20.3006C17.3613 22.3346 17.3613 25.6082 17.3613 32.1555C17.3613 38.7028 17.3613 41.9764 19.3953 44.0104C21.4293 46.0444 24.7029 46.0444 31.2502 46.0444C37.7975 46.0444 41.0711 46.0444 43.1051 44.0104C45.1391 41.9764 45.1391 38.7028 45.1391 32.1555C45.1391 25.6082 45.1391 22.3346 43.1051 20.3006C41.0711 18.2666 37.7975 18.2666 31.2502 18.2666C24.7029 18.2666 21.4293 18.2666 19.3953 20.3006ZM38.1947 26.9472C38.77 26.9472 39.2363 27.4135 39.2363 27.9888V40.4888C39.2363 41.0641 38.77 41.5305 38.1947 41.5305C37.6194 41.5305 37.153 41.0641 37.153 40.4888V27.9888C37.153 27.4135 37.6194 26.9472 38.1947 26.9472ZM32.2919 32.1555C32.2919 31.5802 31.8255 31.1138 31.2502 31.1138C30.6749 31.1138 30.2085 31.5802 30.2085 32.1555V40.4888C30.2085 41.0641 30.6749 41.5305 31.2502 41.5305C31.8255 41.5305 32.2919 41.0641 32.2919 40.4888V32.1555ZM24.3058 35.2805C24.8811 35.2805 25.3474 35.7469 25.3474 36.3222V40.4888C25.3474 41.0641 24.8811 41.5305 24.3058 41.5305C23.7305 41.5305 23.2641 41.0641 23.2641 40.4888V36.3222C23.2641 35.7469 23.7305 35.2805 24.3058 35.2805Z" fill="#161717"/>
</svg>
