<svg width="45" height="45" viewBox="0 0 45 45" fill="none" xmlns="http://www.w3.org/2000/svg">
<g clip-path="url(#clip0_1405_19111)">
<path d="M38.156 6.50637C29.4764 -2.17063 15.406 -2.16854 6.72903 6.51114C-1.94797 15.1908 -1.94589 29.2611 6.7338 37.9381C15.4135 46.6151 29.4838 46.6131 38.1608 37.9334C42.328 33.7649 44.6684 28.1117 44.6671 22.2175C44.6659 16.3243 42.3238 10.6729 38.156 6.50637ZM33.8775 30.9553C33.8765 30.9563 33.8756 30.9573 33.8745 30.9583V30.9509L32.7486 32.0694C31.2924 33.544 29.1716 34.1506 27.1559 33.6694C25.1251 33.1258 23.1946 32.2605 21.4374 31.1065C19.805 30.0631 18.2921 28.8435 16.9263 27.4694C15.6697 26.2219 14.5407 24.8521 13.5559 23.3805C12.4789 21.797 11.6263 20.072 11.0226 18.2545C10.3305 16.1195 10.904 13.7767 12.5041 12.2027L13.8226 10.8842C14.1892 10.516 14.7848 10.5147 15.153 10.8813C15.1539 10.8822 15.155 10.8832 15.1559 10.8842L19.3189 15.0472C19.6871 15.4137 19.6884 16.0094 19.3218 16.3776C19.3209 16.3785 19.3199 16.3795 19.3189 16.3805L16.8744 18.8249C16.173 19.5187 16.0848 20.6211 16.667 21.4176C17.5512 22.6309 18.5295 23.7727 19.593 24.8324C20.7787 26.0232 22.0677 27.1065 23.4448 28.0695C24.2406 28.6245 25.3194 28.5309 26.0078 27.8473L28.3707 25.4473C28.7373 25.079 29.3329 25.0777 29.7011 25.4443C29.702 25.4453 29.703 25.4462 29.704 25.4473L33.8744 29.625C34.2427 29.9915 34.244 30.5871 33.8775 30.9553Z" fill="#3468AC"/>
</g>
<defs>
<clipPath id="clip0_1405_19111">
<rect width="44.4444" height="44.4444" fill="white" transform="translate(0.222656)"/>
</clipPath>
</defs>
</svg>
