<svg width="45" height="45" viewBox="0 0 45 45" fill="none" xmlns="http://www.w3.org/2000/svg">
<g clip-path="url(#clip0_1405_19110)">
<path d="M22.6647 0C18.2462 0.00586121 14.0104 1.76369 10.8861 4.88803C7.76174 8.01236 6.00391 12.2482 5.99805 16.6667C5.99805 28.6319 21.5258 43.6181 22.1855 44.25C22.3139 44.3747 22.4858 44.4445 22.6647 44.4445C22.8437 44.4445 23.0156 44.3747 23.1439 44.25C23.8036 43.6181 39.3314 28.6319 39.3314 16.6667C39.3255 12.2482 37.5677 8.01236 34.4434 4.88803C31.319 1.76369 27.0832 0.00586121 22.6647 0ZM22.6647 24.3056C21.1539 24.3056 19.677 23.8575 18.4208 23.0182C17.1646 22.1788 16.1855 20.9858 15.6073 19.5899C15.0291 18.1941 14.8779 16.6582 15.1726 15.1764C15.4674 13.6946 16.1949 12.3335 17.2632 11.2652C18.3315 10.1968 19.6926 9.4693 21.1744 9.17456C22.6562 8.87981 24.1922 9.03108 25.588 9.60925C26.9838 10.1874 28.1768 11.1665 29.0162 12.4227C29.8556 13.6789 30.3036 15.1558 30.3036 16.6667C30.3024 18.6923 29.4972 20.6345 28.0649 22.0668C26.6326 23.4991 24.6903 24.3043 22.6647 24.3056Z" fill="#3468AC"/>
</g>
<defs>
<clipPath id="clip0_1405_19110">
<rect width="44.4444" height="44.4444" fill="white" transform="translate(0.443359)"/>
</clipPath>
</defs>
</svg>
